# AST/ASF file generated using VICON BodyLanguage
# -----------------------------------------------
:version 1.10
:name VICON
:units
  mass 1.0
  length 0.45
  angle deg
:documentation
   .ast/.asf automatically generated from VICON data using
   VICON BodyBuilder and BodyLanguage model FoxedUp or BRILLIANT.MOD
:root
   order TX TY TZ RX RY RZ
   axis XYZ
   position 0 0 0  
   orientation 0 0 0 
:bonedata
  begin
     id 1 
     name lhipjoint
     direction 0.521452 -0.77106 0.36545 
     length 2.0933 
     axis 0 0 0  XYZ
  end
  begin
     id 2 
     name lfemur
     direction 0.34202 -0.939693 0  
     length 6.83441  
     axis 0 0 20  XYZ
    dof rx ry rz
    limits (-160.0 20.0)
           (-70.0 70.0)
           (-60.0 70.0)
  end
  begin
     id 3 
     name ltibia
     direction 0.34202 -0.939693 0   
     length 7.28749   
     axis 0 0 20   XYZ
    dof rx
    limits (-10.0 170.0)
  end
  begin
     id 4 
     name lfoot
     direction 0.100608 -0.276418 0.955757   
     length 1.52195   
     axis -90 7.62852e-016 20   XYZ
    dof rx rz
    limits (-45.0 90.0)
           (-70.0 20.0)
  end
  begin
     id 5 
     name ltoes
     direction 1.53558e-011 -4.21907e-011 1   
     length 0.770459   
     axis -90 7.62852e-016 20   XYZ
    dof rx
    limits (-90.0 20.0)
  end
  begin
     id 6 
     name rhipjoint
     direction -0.488071 -0.788702 0.373812   
     length 2.04648  
     axis 0 0 0  XYZ 
  end
  begin
     id 7 
     name rfemur
     direction -0.34202 -0.939693 0   
     length 6.92583   
     axis 0 0 -20   XYZ
    dof rx ry rz
    limits (-160.0 20.0)
           (-70.0 70.0)
           (-70.0 60.0)
  end
  begin
     id 8 
     name rtibia
     direction -0.34202 -0.939693 0   
     length 7.41043   
     axis 0 0 -20   XYZ
    dof rx
    limits (-10.0 170.0)
 end
 begin
     id 9 
     name rfoot
     direction -0.0784433 -0.215521 0.973343   
     length 1.67708  
     axis -90 -7.62852e-016 -20   XYZ
    dof rx rz
    limits (-45.0 90.0)
           (-20.0 70.0)
  end
  begin
     id 10 
     name rtoes
     direction -1.53551e-011 -4.21842e-011 1   
     length 0.849787   
     axis -90 -7.62852e-016 -20   XYZ
    dof rx
    limits (-90.0 20.0)
  end
  begin
     id 11 
     name lowerback
     direction -0.0122332 0.997575 -0.0685192   
     length 1.98724   
     axis 0 0 0   XYZ
    dof rx ry rz
    limits (-20.0 45.0)
           (-30.0 30.0)
           (-30.0 30.0)
  end
  begin
     id 12 
     name upperback
     direction 0.0182347 0.999724 -0.0148421   
     length 1.99029   
     axis 0 0 0   XYZ
    dof rx ry rz
    limits (-20.0 45.0)
           (-30.0 30.0)
           (-30.0 30.0)
  end
  begin
     id 13 
     name thorax
     direction 0.0242908 0.99956 0.0170184   
     length 1.99573   
     axis 0 0 0   XYZ
    dof rx ry rz
    limits (-20.0 45.0)
           (-30.0 30.0)
           (-30.0 30.0)
  end
  begin
     id 14 
     name lowerneck
     direction 0.0654488 0.985533 0.156338   
     length 1.4285   
     axis 0 0 0   XYZ
    dof rx ry rz
    limits (-20.0 45.0)
           (-30.0 30.0)
           (-30.0 30.0)
  end
  begin
     id 15 
     name upperneck
     direction -0.02953 0.998556 -0.0448842   
     length 1.44709   
     axis 0 0 0   XYZ
    dof rx ry rz
    limits (-20.0 45.0)
           (-30.0 30.0)
           (-30.0 30.0)
  end
  begin
     id 16
     name head
     direction -0.0155588 0.999386 -0.0314063  
     length 1.44689  
     axis 0 0 0   XYZ
    dof rx ry rz
    limits (-20.0 45.0)
           (-30.0 30.0)
           (-30.0 30.0)
  end
  begin
     id 17 
     name lclavicle
     direction 0.968229 0.236071 -0.0824755  
     length 3.60593  
     axis 0 0 0   XYZ
    dof ry rz
    limits (-20.0 10.0)
           (0.0 20.0)
  end
  begin
     id 18 
     name lhumerus
     direction 1 -4.48968e-011 7.8138e-029   
     length 5.06035   
     axis 180 -30 -90   XYZ
    dof rx ry rz
    limits (-60.0 90.0)
           (-90.0 90.0)
           (-90.0 90.0)
  end
  begin
     id 19
     name lradius
     direction 1 -4.48967e-011 9.02887e-028   
     length 3.1478   
     axis 180 -30 -90   XYZ
    dof rx
    limits (-10.0 170.0)
  end
  begin
     id 20
     name lwrist
     direction 1 -4.48961e-011 7.20928e-028   
     length 1.5739   
     axis -5.52449e-016 90 90   XYZ
    dof ry
    limits (-180.0 0.0)
 end
  begin
     id 21 
     name lhand
     direction 1 -4.48972e-011 1.44186e-027   
     length 0.606747   
     axis -9.20027e-016 90 90   XYZ
    dof rx rz
    limits (-90.0 90.0)
           (-45.0 45.0)
  end
  begin
     id 22 
     name lfingers
     direction 1 -4.48943e-011 2.88371e-027   
     length 0.489175   
     axis -1.84005e-015 90 90   XYZ
    dof rx
    limits (0.0 90.0)
  end
  begin
     id 23
     name lthumb
     direction 0.707107 -6.34917e-011 0.707107   
     length 0.70236   
     axis -90 45 2.85299e-015   XYZ
    dof rx rz
    limits (-45.0 45.0)
           (-45.0 45.0)
  end
  begin
     id 24 
     name rclavicle
     direction -0.978165 0.207816 0.0022268   
     length 3.35425  
     axis 0 0 0   XYZ 
    dof ry rz
    limits (-10.0 20.0)
           (-20.0 0.0)
  end
  begin
     id 25 
     name rhumerus
     direction -1 -4.48964e-011 -4.02159e-027  
     length 5.12273   
     axis 180 30 90   XYZ
    dof rx ry rz
    limits (-90.0 60.0)
           (-90.0 90.0)
           (-90.0 90.0)
  end
  begin
     id 26 
     name rradius
     direction -1 -4.48966e-011 1.62746e-027   
     length 3.422   
     axis 180 30 90   XYZ
    dof rx
    limits (-10.0 170.0)
  end
  begin
     id 27 
     name rwrist
     direction -1 -4.4896e-011 7.20928e-028   
     length 1.711   
     axis -5.52449e-016 -90 -90   XYZ
    dof ry
    limits (-180.0 0.0)
  end
  begin
     id 28
     name rhand
     direction -1 -4.48979e-011 1.44186e-027   
     length 0.704599   
     axis -9.20027e-016 -90 -90   XYZ
    dof rx rz
    limits (-90.0 90.0)
           (-45.0 45.0)
  end
  begin
     id 29
     name rfingers
     direction -1 -4.48962e-011 2.88371e-027   
     length 0.568066   
     axis -1.84005e-015 -90 -90   XYZ
    dof rx
    limits (0.0 90.0)
  end
  begin
     id 30
     name rthumb
     direction -0.707107 -6.34949e-011 0.707107   
     length 0.815633   
     axis -90 -45 -2.85299e-015   XYZ
    dof rx rz
    limits (-45.0 45.0)
           (-45.0 45.0)
  end
:hierarchy
  begin
    root lhipjoint rhipjoint lowerback
    lhipjoint lfemur
    lfemur ltibia
    ltibia lfoot
    lfoot ltoes
    rhipjoint rfemur
    rfemur rtibia
    rtibia rfoot
    rfoot rtoes
    lowerback upperback
    upperback thorax
    thorax lowerneck lclavicle rclavicle
    lowerneck upperneck
    upperneck head
    lclavicle lhumerus
    lhumerus lradius
    lradius lwrist
    lwrist lhand lthumb
    lhand lfingers
    rclavicle rhumerus
    rhumerus rradius
    rradius rwrist
    rwrist rhand rthumb
    rhand rfingers
  end

#!OML:ASF E:\id_vita\Project 1\Capture day 1\Session 1\Male1.ASF
:FULLY-SPECIFIED
:DEGREES
255
root 20.4832 16.1652 -0.691733 768.556 84.8452 767.319
lowerback -4.68118 -1.64548 -5.07424
upperback 0.722234 -1.845 -1.0264
thorax 3.50264 -1.00023 1.64102
lowerneck -13.2853 2.17688 2.4575
upperneck 9.10935 2.34013 1.1567
head 4.91924 1.31577 0.151935
rclavicle -3.56073e-014 -1.78906e-014
rhumerus -25.2086 -12.7334 -86.9552
rradius 22.6068
rwrist 7.49274
rhand -22.7461 36.2706
rfingers 7.12502
rthumb 3.68831 6.32282
lclavicle -3.56073e-014 -1.78906e-014
lhumerus -49.917 56.4557 43.0113
lradius 10.9172
lwrist -38.4471
lhand -13.7125 46.4794
lfingers 7.12502
lthumb 12.4063 76.0913
rfemur -15.0535 -1.93872 15.3302
rtibia 66.6714
rfoot -6.16289 -1.13538
rtoes 10.4296
lfemur -13.7012 1.38475 -27.1785
ltibia 31.789
lfoot -18.8208 -0.744782
ltoes 40.5115
256
root 20.663 16.1534 -0.701491 770.828 85.3481 769.564
lowerback -4.60054 -1.78185 -4.88725
upperback 0.739859 -2.04838 -0.908426
thorax 3.48636 -1.09981 1.64391
lowerneck -13.1401 2.16435 2.57527
upperneck 8.87582 2.31438 1.1179
head 4.82454 1.30207 0.115539
rclavicle 2.34659e-014 -7.85199e-015
rhumerus -25.8697 -14.8366 -85.6849
rradius 20.7032
rwrist 8.86706
rhand -22.7509 35.7178
rfingers 7.12502
rthumb 3.6837 5.76994
lclavicle 2.34659e-014 -7.85199e-015
lhumerus -40.4461 50.7508 54.4508
lradius 12.1303
lwrist -30.7013
lhand -13.4352 46.2644
lfingers 7.12502
lthumb 12.6737 75.8599
rfemur -16.5295 -2.16885 15.8685
rtibia 66.3518
rfoot -8.00731 -1.56966
rtoes 10.6431
lfemur -13.1462 1.24788 -26.9696
ltibia 32.0758
lfoot -19.5745 -1.17118
ltoes 40.6455
257
root 20.8342 16.1355 -0.710408 773.807 85.6551 772.45
lowerback -4.3702 -1.91748 -4.90109
upperback 0.670565 -2.25084 -0.77604
thorax 3.30399 -1.19818 1.78096
lowerneck -12.9115 2.25071 2.49901
upperneck 8.57421 2.4494 1.17221
head 4.69256 1.3656 0.150319
rclavicle 1.07336e-014 1.41634e-014
rhumerus -26.7086 -16.8388 -84.2292
rradius 19.0778
rwrist 10.5465
rhand -22.6643 34.4821
rfingers 7.12502
rthumb 3.76729 4.5356
lclavicle 1.07336e-014 1.41634e-014
lhumerus -34.5458 45.5179 61.9356
lradius 13.4742
lwrist -24.4106
lhand -13.2514 46.3941
lfingers 7.12502
lthumb 12.8509 75.9785
rfemur -18.1346 -2.28962 16.2428
rtibia 65.8882
rfoot -9.45402 -1.97131
rtoes 10.8314
lfemur -12.7375 1.246 -26.9198
ltibia 32.4307
lfoot -20.3278 -1.51667
ltoes 40.5316
258
root 21.0067 16.1109 -0.723371 778.985 85.8588 777.416
lowerback -4.29667 -2.05343 -4.94598
upperback 0.595931 -2.43921 -0.707178
thorax 3.20318 -1.29036 1.8666
lowerneck -12.8887 2.25838 2.40818
upperneck 8.31702 2.48342 1.13445
head 4.60837 1.37396 0.153539
rclavicle 2.88125e-014 4.87022e-015
rhumerus -27.7543 -20.2883 -82.0342
rradius 17.2773
rwrist 14.028
rhand -22.5069 34.5401
rfingers 7.12502
rthumb 3.91932 4.59637
lclavicle 2.88125e-014 4.87022e-015
lhumerus -30.5445 41.0201 67.1156
lradius 14.8291
lwrist -19.442
lhand -13.5484 46.1995
lfingers 7.12502
lthumb 12.5645 75.8017
rfemur -19.7685 -2.55906 16.3925
rtibia 65.2934
rfoot -10.8211 -2.31166
rtoes 10.6899
lfemur -12.4312 1.20001 -27.0501
ltibia 32.7853
lfoot -21.131 -1.88837
ltoes 40.4926
259
root 21.1833 16.0861 -0.739906 785.871 86.0267 784.101
lowerback -4.30536 -2.19246 -4.97121
upperback 0.549364 -2.62574 -0.661905
thorax 3.17634 -1.38278 1.91367
lowerneck -13.108 2.08853 2.03515
upperneck 8.24528 2.29327 1.34026
head 4.61387 1.28149 0.264434
rclavicle 4.69892e-014 -5.8393e-016
rhumerus -29.1159 -24.5602 -79.1972
rradius 15.5161
rwrist 18.2045
rhand -22.3079 35.1626
rfingers 7.12502
rthumb 4.11142 5.22249
lclavicle 4.69892e-014 -5.8393e-016
lhumerus -27.6328 36.8899 71.0494
lradius 16.4138
lwrist -15.1472
lhand -13.6725 45.7689
lfingers 7.12502
lthumb 12.4448 75.3784
rfemur -21.2944 -2.9409 16.448
rtibia 64.5304
rfoot -12.0619 -2.65636
rtoes 8.80075
lfemur -12.0434 1.00567 -27.2462
ltibia 33.049
lfoot -21.8133 -2.27409
ltoes 40.8045
